<svg width="18" height="14" viewBox="0 0 18 14" fill="none" xmlns="http://www.w3.org/2000/svg">
<path d="M6.14566 10.6755L15.9952 0.825891C16.2277 0.593453 16.5037 0.477234 16.8233 0.477234C17.1429 0.477234 17.4189 0.593453 17.6513 0.825891C17.8838 1.05833 18 1.33435 18 1.65395C18 1.97355 17.8838 2.24957 17.6513 2.48201L6.95919 13.1742C6.72676 13.4066 6.45558 13.5228 6.14566 13.5228C5.83574 13.5228 5.56457 13.4066 5.33213 13.1742L0.334711 8.17674C0.102273 7.94431 -0.00910382 7.66829 0.000581095 7.34868C0.010266 7.02908 0.131327 6.75306 0.363766 6.52062C0.596204 6.28818 0.872224 6.17197 1.19183 6.17197C1.51143 6.17197 1.78745 6.28818 2.01989 6.52062L6.14566 10.6755Z" fill="white"/>
</svg>
